<svg preserveAspectRatio="none" width="100%" height="100%" overflow="visible" style="display: block;" viewBox="0 0 606 253.206" fill="none" xmlns="http://www.w3.org/2000/svg">
<g id="Vector">
<path d="M183.848 172.1C183.848 188.826 193.666 197.498 204.68 197.723C215.089 197.526 224.427 189.755 225.413 174.789C225.385 173.902 225.37 173.001 225.37 172.114V8.45257H285.4V172.1C285.4 172.987 285.386 173.874 285.358 174.761C285.851 182.026 288.33 187.53 291.696 191.261C295.442 195.4 300.597 197.723 306.527 197.723V253.206C287.161 253.206 269.357 246.378 255.385 235.017C243.343 244.816 228.455 251.235 212.159 252.826C207.088 253.22 202.131 253.178 197.215 252.826C156.172 248.842 123.974 214.153 123.974 172.1V8.45257H183.862V172.1H183.848Z" fill="var(--fill-0, #0A0A0A)"/>
<path d="M59.9027 172.1C59.9027 180.688 62.5647 187.094 66.3254 191.261C70.072 195.4 75.227 197.723 81.1567 197.723H109.862V253.206H81.1567C36.4233 253.206 0 216.814 0 172.086V8.45257H59.8886V172.1H59.9027Z" fill="var(--fill-0, #0A0A0A)"/>
<path d="M380.5 172.1C380.5 180.688 383.162 187.094 386.923 191.261C390.669 195.4 395.824 197.723 401.754 197.723H430.459V253.206H401.754C357.021 253.206 320.597 216.814 320.597 172.086V8.45257H380.486V172.1H380.5Z" fill="var(--fill-0, #0A0A0A)"/>
<path d="M605.887 77.0721C605.859 76.4808 605.817 75.8754 605.775 75.2701C605.718 74.355 605.634 73.4399 605.535 72.5389C605.479 71.9757 605.423 71.4126 605.338 70.8494C605.352 70.8354 605.338 70.8354 605.338 70.8213C605.31 70.5397 605.268 70.2441 605.225 69.9484C605.141 69.3712 605.056 68.8081 604.972 68.2308C604.915 67.9352 604.873 67.6536 604.831 67.358C604.775 67.0764 604.732 66.7949 604.676 66.5133C604.577 65.9361 604.465 65.3729 604.352 64.8098C604.127 63.6835 603.873 62.5572 603.592 61.445C603.183 59.7838 602.718 58.1366 602.197 56.5035C601.859 55.4195 601.493 54.3495 601.099 53.2795C600.901 52.7446 600.704 52.2096 600.493 51.6887C600.296 51.1537 600.084 50.6328 599.859 50.1119C599.436 49.0701 598.986 48.0424 598.507 47.0146C598.028 46.001 597.535 44.9873 597.028 43.9878C596.76 43.495 596.507 43.0023 596.239 42.5095C595.972 42.0168 595.704 41.524 595.422 41.0313C594.873 40.0599 594.296 39.1026 593.704 38.1593C593.69 38.1171 593.662 38.0748 593.634 38.0326C592.464 36.1742 591.225 34.3863 589.929 32.6405C589.591 32.176 589.239 31.7114 588.887 31.2609C588.549 30.8385 588.211 30.4162 587.873 29.9938C587.521 29.5714 587.169 29.135 586.816 28.7127C586.098 27.868 585.352 27.0233 584.605 26.2067C583.859 25.3902 583.084 24.5877 582.295 23.7993C581.915 23.4051 581.507 23.0109 581.112 22.6308C580.718 22.2366 580.309 21.8565 579.901 21.4904C579.492 21.1103 579.084 20.7302 578.661 20.3641C578.351 20.0967 578.042 19.8151 577.732 19.5476C577.154 19.0408 576.577 18.5621 575.985 18.0834C575.591 17.7737 575.211 17.464 574.816 17.1543C574.38 16.8164 573.943 16.4785 573.492 16.1406C572.675 15.5212 571.83 14.9158 570.985 14.3245C570.915 14.2682 570.844 14.2259 570.774 14.1837C569.915 13.5924 569.041 13.0152 568.168 12.4661C568.07 12.3957 567.971 12.3254 567.872 12.269C567.041 11.7481 566.196 11.2413 565.351 10.7486C564.788 10.4107 564.21 10.0869 563.633 9.79123C562.746 9.31257 561.858 8.8339 560.943 8.39747C560.337 8.08774 559.731 7.7921 559.126 7.51053C558.633 7.27119 558.126 7.04594 557.619 6.82068C557.591 6.79253 557.562 6.77845 557.534 6.77845C557.041 6.56727 556.548 6.35609 556.041 6.14492C555.52 5.91966 554.999 5.70849 554.478 5.49731C553.914 5.27205 553.351 5.06088 552.774 4.8497C551.745 4.48366 550.717 4.11762 549.675 3.77974C549.14 3.6108 548.59 3.44186 548.041 3.27291C547.492 3.11805 546.942 2.94911 546.393 2.80833C545.999 2.6957 545.618 2.59715 545.224 2.48452C544.168 2.21703 543.111 1.96362 542.041 1.73836C541.661 1.65389 541.294 1.56942 540.928 1.49903C540.506 1.41456 540.097 1.33009 539.675 1.2597C537.393 0.823265 535.083 0.499461 532.745 0.274206C528.224 -0.0636765 523.702 -0.0918333 519.083 0.203814H518.942C518.561 0.231971 518.195 0.246049 517.815 0.274206C517.674 0.274206 517.519 0.302363 517.378 0.316442C516.984 0.358677 516.59 0.400912 516.181 0.443148C515.716 0.499461 515.252 0.569854 514.773 0.626167C514.28 0.696559 513.773 0.766952 513.266 0.837344C512.28 0.992207 511.294 1.17523 510.322 1.35825C509.815 1.4568 509.308 1.55534 508.815 1.66797C508.322 1.76652 507.829 1.87915 507.336 1.99178C506.857 2.1044 506.364 2.21703 505.885 2.34374C505.392 2.47044 504.913 2.59715 504.434 2.72386C503.956 2.85056 503.477 2.99135 502.998 3.13213C502.04 3.39962 501.096 3.69527 500.153 4.01907C499.688 4.17394 499.209 4.3288 498.744 4.49774C498.279 4.66668 497.815 4.83562 497.35 5.00456C496.899 5.1735 496.434 5.35652 495.969 5.53954C495.519 5.70849 495.054 5.90558 494.603 6.0886C493.814 6.41241 493.04 6.75029 492.265 7.10225C491.35 7.5246 490.462 7.94696 489.561 8.39747C489.462 8.45378 489.35 8.49602 489.251 8.55233C488.504 8.91837 487.772 9.31257 487.04 9.72084C486.758 9.86163 486.476 10.0165 486.195 10.1854C485.504 10.5655 484.814 10.9738 484.124 11.3821C483.434 11.8045 482.73 12.2268 482.04 12.6773C481.673 12.9166 481.293 13.156 480.927 13.3953C479.462 14.3808 478.025 15.3945 476.617 16.4644C475.997 16.9431 475.363 17.4358 474.758 17.9286C474.701 17.9849 474.645 18.0271 474.589 18.0694C459.025 30.7259 448.222 49.0279 445.363 69.8358C445.109 71.6378 444.912 73.4821 444.785 75.3264C444.743 75.9599 444.701 76.6216 444.673 77.2551C444.644 77.9027 444.616 78.5504 444.602 79.198C444.574 79.8033 444.574 80.3946 444.574 81V172.144C444.574 173.411 444.602 174.664 444.673 175.903V175.973C444.701 176.564 444.743 177.17 444.785 177.775C444.842 178.69 444.926 179.605 445.025 180.506C445.109 181.379 445.208 182.238 445.335 183.097C445.447 183.97 445.574 184.829 445.729 185.673C445.771 185.969 445.828 186.25 445.884 186.532C445.982 187.109 446.095 187.672 446.208 188.236C446.306 188.7 446.405 189.179 446.504 189.643C446.532 189.84 446.574 190.023 446.63 190.207C446.743 190.671 446.856 191.136 446.968 191.6C447.377 193.262 447.842 194.909 448.363 196.542C448.701 197.626 449.067 198.696 449.461 199.766C449.659 200.301 449.856 200.836 450.067 201.357C450.264 201.892 450.476 202.413 450.701 202.933C451.123 203.975 451.574 205.003 452.053 206.031C452.532 207.044 453.025 208.058 453.532 209.058C453.8 209.55 454.053 210.043 454.321 210.536C454.588 211.029 454.856 211.521 455.138 212.014C455.687 212.985 456.264 213.943 456.856 214.886C456.87 214.928 456.898 214.97 456.926 215.013C458.095 216.871 459.335 218.659 460.631 220.405C460.969 220.869 461.321 221.334 461.673 221.784L462.687 223.051C463.039 223.474 463.391 223.91 463.743 224.333C464.462 225.177 465.208 226.022 465.955 226.839C466.701 227.655 467.476 228.458 468.265 229.246C468.645 229.64 469.053 230.034 469.448 230.415C469.842 230.809 470.251 231.189 470.659 231.555C471.068 231.935 471.476 232.315 471.898 232.681C472.208 232.949 472.518 233.23 472.828 233.498C473.406 234.005 473.983 234.483 474.575 234.962C474.969 235.272 475.349 235.581 475.744 235.891C476.18 236.229 476.617 236.567 477.068 236.905C477.885 237.524 478.73 238.13 479.575 238.721C479.645 238.777 479.716 238.819 479.786 238.862C480.645 239.453 481.518 240.03 482.392 240.579C482.49 240.65 482.589 240.72 482.687 240.776C483.518 241.297 484.364 241.804 485.209 242.297C485.772 242.635 486.35 242.958 486.927 243.254C487.814 243.733 488.702 244.211 489.617 244.648C490.223 244.958 490.828 245.253 491.434 245.535C491.927 245.774 492.434 245.999 492.941 246.225C492.969 246.253 492.998 246.267 493.026 246.267C493.519 246.478 494.012 246.689 494.519 246.9C495.04 247.126 495.561 247.337 496.082 247.548C496.646 247.773 497.209 247.984 497.786 248.196C498.815 248.562 499.843 248.928 500.885 249.266C501.42 249.435 501.97 249.603 502.519 249.772C503.068 249.927 503.617 250.096 504.167 250.237C504.561 250.35 504.941 250.448 505.336 250.561C506.392 250.828 507.449 251.082 508.519 251.307C508.899 251.391 509.266 251.476 509.632 251.546C510.054 251.631 510.463 251.715 510.885 251.786C513.167 252.222 515.477 252.546 517.815 252.771H517.829C522.35 253.109 526.872 253.137 531.491 252.841H531.632C532.013 252.813 532.379 252.799 532.759 252.771C532.9 252.757 533.055 252.743 533.196 252.729C533.59 252.687 533.984 252.644 534.393 252.602C534.858 252.546 535.322 252.475 535.801 252.419C536.294 252.349 536.801 252.278 537.308 252.208C538.294 252.053 539.28 251.87 540.252 251.687C540.759 251.589 541.266 251.49 541.759 251.377C542.252 251.279 542.745 251.166 543.238 251.054C543.717 250.941 544.21 250.828 544.689 250.702C545.182 250.575 545.661 250.448 546.14 250.321C546.618 250.195 547.097 250.054 547.576 249.913C548.534 249.646 549.478 249.35 550.421 249.026C550.886 248.871 551.365 248.717 551.83 248.548C552.295 248.379 552.759 248.21 553.224 248.041C553.675 247.872 554.14 247.689 554.605 247.506C555.055 247.337 555.52 247.14 555.971 246.957C556.76 246.633 557.534 246.295 558.309 245.943C559.224 245.521 560.112 245.098 561.013 244.648C561.112 244.592 561.224 244.549 561.323 244.493C562.069 244.127 562.802 243.733 563.534 243.324C563.816 243.184 564.098 243.029 564.379 242.86C565.07 242.48 565.76 242.071 566.45 241.663C567.14 241.241 567.844 240.818 568.534 240.368C568.901 240.129 569.281 239.889 569.647 239.65C571.112 238.665 572.549 237.651 573.957 236.581C574.577 236.102 575.211 235.609 575.816 235.117C575.873 235.06 575.929 235.018 575.985 234.976C576.83 234.286 577.661 233.582 578.478 232.85C579.295 232.132 580.098 231.4 580.887 230.654C580.887 230.64 580.901 230.64 580.915 230.626C584.07 227.613 586.986 224.347 589.605 220.855C591.267 218.673 592.817 216.406 594.225 214.069C594.803 213.126 595.352 212.183 595.873 211.226C596.634 209.874 597.338 208.508 598.014 207.129C598.296 206.523 598.577 205.918 598.845 205.313C599.07 204.806 599.296 204.299 599.507 203.792C599.718 203.285 599.944 202.764 600.141 202.258C600.437 201.554 600.718 200.822 600.986 200.104C601.098 199.78 601.225 199.456 601.324 199.132C601.422 198.865 601.507 198.597 601.606 198.33C601.606 198.33 601.61 198.32 601.62 198.302C601.676 198.175 601.718 198.062 601.746 197.936C601.845 197.64 601.944 197.344 602.042 197.049C602.155 196.683 602.282 196.317 602.38 195.95C602.38 195.922 602.408 195.908 602.408 195.88C602.493 195.627 602.563 195.387 602.634 195.134C602.718 194.866 602.789 194.613 602.859 194.346C602.915 194.191 602.958 194.022 603 193.853C603.084 193.543 603.169 193.219 603.268 192.895C603.268 192.839 603.296 192.783 603.31 192.712C603.493 192.023 603.662 191.333 603.831 190.643C604.394 188.193 604.859 185.73 605.211 183.21C605.465 181.407 605.662 179.563 605.789 177.719C605.831 177.085 605.873 176.424 605.901 175.79C605.93 175.143 605.958 174.495 605.972 173.847C606 173.242 606 172.651 606 172.045V81C606 79.6907 605.972 78.3814 605.901 77.0721H605.887ZM546.097 171.989C546.097 188.714 536.28 197.387 525.28 197.612C514.266 197.387 504.449 188.714 504.449 171.989V81.0141C504.449 64.2889 514.266 55.6166 525.28 55.3913C536.111 55.6025 545.787 64.0214 546.097 80.2257V171.989Z" fill="var(--fill-0, #0A0A0A)"/>
</g>
</svg>
